<?xml version="1.0" standalone="no"?>
<!DOCTYPE svg PUBLIC "-//W3C//DTD SVG 20010904//EN"
 "http://www.w3.org/TR/2001/REC-SVG-20010904/DTD/svg10.dtd">
<svg version="1.0" xmlns="http://www.w3.org/2000/svg"
 width="500.000000pt" height="500.000000pt" viewBox="0 0 500.000000 500.000000"
 preserveAspectRatio="xMidYMid meet">
<metadata>
Created by potrace 1.14, written by Peter Selinger 2001-2017
</metadata>
<g transform="translate(0.000000,500.000000) scale(0.100000,-0.100000)"
fill="#000000" stroke="none">
<path d="M2425 4188 c-6 -4 -32 -29 -60 -54 -48 -44 -52 -45 -100 -41 -27 3
-54 6 -60 7 -5 1 -12 1 -15 0 -3 -1 -21 -4 -40 -6 -62 -7 -71 -10 -81 -25 -5
-8 -9 -10 -9 -6 0 5 -12 -6 -27 -24 -48 -58 -91 -99 -102 -99 -6 0 -11 -4 -11
-10 0 -5 -5 -10 -10 -10 -6 0 -32 -22 -59 -49 -27 -27 -52 -47 -55 -44 -3 4
-6 1 -6 -5 0 -12 -30 -49 -78 -99 -13 -12 -20 -23 -16 -23 10 0 -38 -35 -61
-45 -11 -4 -24 -7 -28 -6 -5 1 -6 -3 -2 -9 3 -5 1 -10 -4 -10 -13 0 -10 -22 4
-32 6 -5 5 -8 -3 -8 -7 0 -10 -5 -7 -10 4 -6 11 -8 16 -4 12 7 3 -47 -9 -55
-12 -9 -53 -113 -41 -105 7 4 7 0 1 -12 -6 -11 -16 -46 -23 -79 -15 -72 -13
-64 -27 -98 -7 -16 -12 -34 -12 -42 0 -8 -4 -16 -10 -20 -5 -3 -7 -12 -3 -20
3 -8 0 -15 -7 -15 -8 0 -11 -11 -8 -30 2 -16 1 -31 -4 -32 -8 -3 -20 -89 -22
-155 0 -18 -5 -33 -10 -33 -4 0 -3 -6 3 -13 6 -8 8 -17 4 -21 -10 -10 -11 -46
-1 -46 5 0 6 -6 1 -12 -7 -12 -9 -17 -12 -36 -1 -9 -2 -10 -76 -15 -27 -2 -53
-5 -57 -6 -10 -2 10 -52 29 -73 9 -10 12 -18 8 -18 -4 0 1 -8 11 -17 10 -10
35 -40 54 -68 19 -27 41 -57 50 -66 8 -8 33 -36 56 -60 22 -24 50 -51 60 -59
62 -48 94 -70 94 -65 0 3 10 -3 22 -15 12 -11 28 -20 35 -20 7 0 13 -3 13 -8
0 -4 10 -12 23 -17 12 -6 21 -16 19 -23 -1 -7 4 -12 10 -12 8 -1 6 -6 -5 -14
-13 -10 -15 -16 -7 -21 8 -5 9 -10 2 -14 -7 -4 -6 -19 3 -44 7 -20 8 -37 3
-37 -5 0 -6 -6 -2 -12 5 -7 9 -29 9 -50 2 -44 10 -57 28 -39 14 14 14 101 -1
175 -7 38 -6 53 4 63 7 7 15 9 18 4 3 -5 15 -7 26 -4 10 3 39 -4 63 -16 24
-12 49 -21 55 -21 7 0 12 -6 12 -14 0 -8 15 -23 33 -34 59 -37 152 -105 156
-114 2 -5 18 -23 37 -40 46 -42 41 -46 -73 -49 -43 -1 -61 -5 -56 -13 4 -8 3
-8 -6 0 -9 8 -25 8 -59 0 -47 -10 -67 -25 -109 -79 -26 -33 -77 -72 -115 -88
-16 -6 -28 -15 -28 -20 0 -5 -6 -9 -14 -9 -8 0 -22 -7 -30 -16 -9 -8 -16 -12
-16 -7 0 4 -14 -8 -30 -27 -17 -19 -28 -40 -25 -47 2 -7 0 -15 -4 -17 -12 -8
-5 -130 8 -134 13 -4 -10 -44 -80 -142 -49 -69 -76 -117 -122 -220 -9 -19 -28
-48 -42 -65 -15 -16 -39 -46 -53 -65 -15 -19 -37 -44 -49 -57 -12 -13 -20 -23
-18 -23 5 0 -47 -61 -80 -92 -16 -15 -26 -28 -22 -28 4 0 -8 -14 -28 -31 -19
-17 -32 -35 -29 -40 3 -5 -2 -9 -10 -9 -9 0 -16 -4 -16 -10 0 -5 -11 -15 -24
-22 -14 -7 -26 -17 -27 -23 -3 -11 -29 -40 -29 -31 0 3 -29 -24 -65 -60 -36
-36 -65 -72 -65 -80 0 -7 -4 -14 -8 -14 -4 0 -9 -10 -10 -22 0 -13 -3 -34 -6
-48 -3 -14 -7 -32 -8 -40 -2 -8 -8 -21 -12 -29 -7 -10 -5 -12 5 -6 11 6 12 5
1 -6 -6 -7 -12 -20 -12 -28 0 -19 -80 -184 -94 -193 -6 -4 -7 -10 -3 -14 4 -4
0 -12 -7 -18 -8 -6 -16 -20 -18 -31 -3 -20 3 -20 1726 -23 1725 -2 1728 -2
1723 18 -3 11 0 20 6 20 8 0 8 3 -1 12 -6 6 -8 18 -3 27 12 23 7 191 -6 221
-6 14 -11 29 -11 34 0 5 -4 12 -9 15 -10 7 -56 101 -59 119 -2 8 -10 22 -19
32 -9 10 -18 25 -19 34 -1 9 -12 27 -24 41 -12 14 -19 25 -14 25 4 0 -1 5 -10
11 -10 5 -18 15 -18 21 0 5 -14 28 -31 49 -17 21 -27 39 -23 39 4 0 -2 8 -12
18 -27 23 -67 95 -92 164 -12 32 -26 66 -31 75 -5 10 -17 35 -26 56 -9 20 -20
37 -26 37 -6 0 -7 5 -4 10 3 6 1 10 -6 10 -7 0 -10 3 -6 6 6 6 -118 192 -143
212 -8 7 -29 18 -46 26 -48 21 -118 116 -86 116 4 0 8 9 9 20 1 11 -2 20 -8
20 -5 0 -9 6 -9 14 0 8 -9 18 -20 21 -23 7 -26 28 -7 47 8 7 12 18 10 25 -2 6
1 14 6 17 13 8 -7 56 -24 56 -6 0 -30 9 -53 20 -24 12 -48 18 -54 14 -7 -4 -8
-3 -4 4 6 11 -6 16 -26 13 -5 0 -8 4 -8 10 0 5 -5 7 -10 4 -5 -3 -10 -1 -10 5
0 6 -5 8 -10 5 -6 -3 -10 -2 -10 3 0 4 -22 18 -50 30 -27 12 -50 27 -50 34 0
6 -3 9 -6 5 -4 -3 -23 9 -43 28 -20 19 -44 38 -54 41 -9 3 -15 10 -12 15 7 11
-13 12 -112 10 l-73 -2 0 50 c0 40 4 52 20 61 11 6 20 7 20 3 0 -4 7 2 16 13
8 10 12 13 9 6 -6 -11 -3 -11 14 0 12 7 21 17 21 22 0 5 12 24 26 43 14 18 24
39 21 46 -2 6 5 20 14 31 10 10 16 23 13 28 -3 4 0 8 6 8 16 0 40 26 32 34 -3
4 1 4 11 0 11 -4 19 0 23 10 3 9 10 13 15 10 5 -3 16 2 25 10 8 9 22 16 30 16
8 0 14 5 14 11 0 8 6 7 17 -2 9 -8 14 -9 10 -3 -3 6 0 11 8 11 8 0 12 -4 9 -9
-3 -4 1 -8 8 -8 8 0 9 -3 3 -8 -5 -4 -11 -16 -12 -27 -5 -39 -15 -90 -20 -97
-2 -5 2 -8 9 -8 11 0 11 -2 0 -9 -11 -6 -10 -11 3 -25 9 -9 13 -16 9 -16 -3 0
-1 -6 5 -13 6 -8 8 -17 4 -21 -4 -4 0 -4 9 -1 11 4 15 17 14 40 -1 18 2 31 6
29 5 -3 8 8 8 23 0 16 6 35 13 42 10 11 10 13 0 7 -16 -9 -17 10 -2 19 6 4 10
21 9 39 -4 61 0 75 31 103 17 15 44 40 60 56 17 15 34 27 39 27 6 0 10 5 10
10 0 6 11 21 25 34 13 13 21 27 17 31 -4 5 -2 5 4 2 11 -7 17 -1 87 90 26 34
47 66 47 72 0 6 4 11 8 11 4 0 8 10 9 22 1 11 6 24 10 27 4 3 9 11 10 17 1 6
4 24 7 39 3 16 10 31 15 34 17 11 24 58 9 67 -16 10 -48 13 -48 4 0 -3 -18 -7
-40 -8 -38 -3 -45 3 -41 31 0 4 -3 7 -7 7 -5 0 -9 15 -10 33 -2 53 -23 160
-39 197 -3 8 -5 18 -5 23 1 4 -3 7 -9 7 -5 0 -7 5 -4 10 3 6 1 10 -5 10 -7 0
-10 6 -8 12 3 7 -2 19 -9 27 -8 7 -17 26 -20 42 -3 16 -9 26 -14 23 -5 -3 -9
4 -9 15 0 11 -4 22 -9 25 -5 3 -21 29 -36 58 -42 81 -49 92 -60 100 -5 4 -6 8
-2 8 7 0 -1 12 -33 47 -8 9 -13 17 -10 17 6 1 -92 140 -102 144 -5 2 -6 8 -2
13 3 5 -2 9 -10 9 -9 0 -16 5 -16 11 0 15 -51 75 -62 71 -4 -1 -8 4 -8 11 0
16 -55 67 -72 67 -6 0 -8 3 -5 6 8 9 -131 86 -178 99 -41 12 -55 19 -55 27 0
5 -4 6 -10 3 -5 -3 -10 1 -10 9 0 9 -4 16 -10 16 -5 0 -20 11 -33 24 -30 30
-103 64 -154 72 -66 11 -78 11 -88 2z"/>
</g>
</svg>
